<mxfile host="app.diagrams.net" modified="2025-08-28T00:00:00.000Z" agent="5.0" etag="" version="24.7.7" type="device">
  <diagram name="VPC Network Detail" id="vpc-detail">
    <mxGraphModel dx="1422" dy="794" grid="1" gridSize="10" guides="1" tooltips="1" connect="1" arrows="1" fold="1" page="1" pageScale="1" pageWidth="1169" pageHeight="827" math="0" shadow="0">
      <root>
        <mxCell id="0" />
        <mxCell id="1" parent="0" />
        
        <!-- VPC Container -->
        <mxCell id="vpc-container" value="" style="points=[[0,0],[0.25,0],[0.5,0],[0.75,0],[1,0],[1,0.25],[1,0.5],[1,0.75],[1,1],[0.75,1],[0.5,1],[0.25,1],[0,1],[0,0.75],[0,0.5],[0,0.25]];outlineConnect=0;gradientColor=none;html=1;whiteSpace=wrap;fontSize=12;fontStyle=0;container=1;pointerEvents=0;collapsible=0;recursiveResize=0;shape=mxgraph.aws4.group;grIcon=mxgraph.aws4.group_vpc;strokeColor=#248814;fillColor=none;verticalAlign=top;align=left;spacingLeft=30;fontColor=#AAB7B8;dashed=0;" vertex="1" parent="1">
          <mxGeometry x="40" y="40" width="1080" height="720" />
        </mxCell>
        <mxCell id="vpc-title" value="VPC: 10.0.0.0/16 (money-management-vpc)" style="text;html=1;align=left;verticalAlign=top;resizable=0;points=[];autosize=1;strokeColor=none;fillColor=none;fontColor=#248814;fontStyle=1;fontSize=14;" vertex="1" parent="vpc-container">
          <mxGeometry x="10" y="10" width="300" height="30" />
        </mxCell>

        <!-- Internet Gateway -->
        <mxCell id="igw" value="" style="sketch=0;points=[[0,0,0],[0.25,0,0],[0.5,0,0],[0.75,0,0],[1,0,0],[0,1,0],[0.25,1,0],[0.5,1,0],[0.75,1,0],[1,1,0],[0,0.25,0],[0,0.5,0],[0,0.75,0],[1,0.25,0],[1,0.5,0],[1,0.75,0]];outlineConnect=0;fontColor=#232F3E;gradientColor=#4AB29A;gradientDirection=north;fillColor=#116D5B;strokeColor=#ffffff;dashed=0;verticalLabelPosition=bottom;verticalAlign=top;align=center;html=1;fontSize=12;fontStyle=0;aspect=fixed;shape=mxgraph.aws4.resourceIcon;resIcon=mxgraph.aws4.internet_gateway;" vertex="1" parent="vpc-container">
          <mxGeometry x="500" y="60" width="78" height="78" />
        </mxCell>
        <mxCell id="igw-label" value="Internet Gateway" style="text;html=1;align=center;verticalAlign=middle;resizable=0;points=[];autosize=1;strokeColor=none;fillColor=none;" vertex="1" parent="vpc-container">
          <mxGeometry x="474" y="145" width="130" height="30" />
        </mxCell>

        <!-- Route Table -->
        <mxCell id="route-table-public" value="Public Route Table" style="rounded=1;whiteSpace=wrap;html=1;fillColor=#dae8fc;strokeColor=#6c8ebf;" vertex="1" parent="vpc-container">
          <mxGeometry x="200" y="180" width="120" height="40" />
        </mxCell>
        
        <mxCell id="route-table-private-a" value="Private Route Table A" style="rounded=1;whiteSpace=wrap;html=1;fillColor=#fff2cc;strokeColor=#d6b656;" vertex="1" parent="vpc-container">
          <mxGeometry x="200" y="400" width="140" height="40" />
        </mxCell>
        
        <mxCell id="route-table-private-c" value="Private Route Table C" style="rounded=1;whiteSpace=wrap;html=1;fillColor=#fff2cc;strokeColor=#d6b656;" vertex="1" parent="vpc-container">
          <mxGeometry x="740" y="400" width="140" height="40" />
        </mxCell>

        <!-- Availability Zone A -->
        <mxCell id="az-a" value="" style="fillColor=none;strokeColor=#147EBA;dashed=1;verticalAlign=top;fontStyle=0;fontColor=#147EBA;whiteSpace=wrap;html=1;" vertex="1" parent="vpc-container">
          <mxGeometry x="60" y="240" width="460" height="420" />
        </mxCell>
        <mxCell id="az-a-label" value="Availability Zone: ap-northeast-1a" style="text;html=1;align=left;verticalAlign=top;resizable=0;points=[];autosize=1;strokeColor=none;fillColor=none;fontColor=#147EBA;fontStyle=1;" vertex="1" parent="vpc-container">
          <mxGeometry x="70" y="245" width="240" height="30" />
        </mxCell>

        <!-- Availability Zone C -->
        <mxCell id="az-c" value="" style="fillColor=none;strokeColor=#147EBA;dashed=1;verticalAlign=top;fontStyle=0;fontColor=#147EBA;whiteSpace=wrap;html=1;" vertex="1" parent="vpc-container">
          <mxGeometry x="560" y="240" width="460" height="420" />
        </mxCell>
        <mxCell id="az-c-label" value="Availability Zone: ap-northeast-1c" style="text;html=1;align=left;verticalAlign=top;resizable=0;points=[];autosize=1;strokeColor=none;fillColor=none;fontColor=#147EBA;fontStyle=1;" vertex="1" parent="vpc-container">
          <mxGeometry x="570" y="245" width="240" height="30" />
        </mxCell>

        <!-- Public Subnet A -->
        <mxCell id="public-subnet-a" value="" style="points=[[0,0],[0.25,0],[0.5,0],[0.75,0],[1,0],[1,0.25],[1,0.5],[1,0.75],[1,1],[0.75,1],[0.5,1],[0.25,1],[0,1],[0,0.75],[0,0.5],[0,0.25]];outlineConnect=0;gradientColor=none;html=1;whiteSpace=wrap;fontSize=12;fontStyle=0;container=1;pointerEvents=0;collapsible=0;recursiveResize=0;shape=mxgraph.aws4.group;grIcon=mxgraph.aws4.group_security_group;strokeColor=#7AA116;fillColor=#d5e8d4;verticalAlign=top;align=left;spacingLeft=30;fontColor=#7AA116;dashed=0;" vertex="1" parent="az-a">
          <mxGeometry x="20" y="40" width="200" height="140" />
        </mxCell>
        <mxCell id="public-subnet-a-label" value="Public Subnet A&#xa;10.0.1.0/24" style="text;html=1;align=left;verticalAlign=top;resizable=0;points=[];autosize=1;strokeColor=none;fillColor=none;fontColor=#7AA116;fontStyle=1;" vertex="1" parent="public-subnet-a">
          <mxGeometry x="5" y="5" width="120" height="40" />
        </mxCell>

        <!-- Public Subnet C -->
        <mxCell id="public-subnet-c" value="" style="points=[[0,0],[0.25,0],[0.5,0],[0.75,0],[1,0],[1,0.25],[1,0.5],[1,0.75],[1,1],[0.75,1],[0.5,1],[0.25,1],[0,1],[0,0.75],[0,0.5],[0,0.25]];outlineConnect=0;gradientColor=none;html=1;whiteSpace=wrap;fontSize=12;fontStyle=0;container=1;pointerEvents=0;collapsible=0;recursiveResize=0;shape=mxgraph.aws4.group;grIcon=mxgraph.aws4.group_security_group;strokeColor=#7AA116;fillColor=#d5e8d4;verticalAlign=top;align=left;spacingLeft=30;fontColor=#7AA116;dashed=0;" vertex="1" parent="az-c">
          <mxGeometry x="20" y="40" width="200" height="140" />
        </mxCell>
        <mxCell id="public-subnet-c-label" value="Public Subnet C&#xa;10.0.2.0/24" style="text;html=1;align=left;verticalAlign=top;resizable=0;points=[];autosize=1;strokeColor=none;fillColor=none;fontColor=#7AA116;fontStyle=1;" vertex="1" parent="public-subnet-c">
          <mxGeometry x="5" y="5" width="120" height="40" />
        </mxCell>

        <!-- NAT Gateway A -->
        <mxCell id="nat-a" value="" style="sketch=0;points=[[0,0,0],[0.25,0,0],[0.5,0,0],[0.75,0,0],[1,0,0],[0,1,0],[0.25,1,0],[0.5,1,0],[0.75,1,0],[1,1,0],[0,0.25,0],[0,0.5,0],[0,0.75,0],[1,0.25,0],[1,0.5,0],[1,0.75,0]];outlineConnect=0;fontColor=#232F3E;gradientColor=#4AB29A;gradientDirection=north;fillColor=#116D5B;strokeColor=#ffffff;dashed=0;verticalLabelPosition=bottom;verticalAlign=top;align=center;html=1;fontSize=12;fontStyle=0;aspect=fixed;shape=mxgraph.aws4.resourceIcon;resIcon=mxgraph.aws4.nat_gateway;" vertex="1" parent="public-subnet-a">
          <mxGeometry x="75" y="60" width="50" height="50" />
        </mxCell>
        <mxCell id="nat-a-label" value="NAT Gateway A" style="text;html=1;align=center;verticalAlign=middle;resizable=0;points=[];autosize=1;strokeColor=none;fillColor=none;fontSize=10;" vertex="1" parent="public-subnet-a">
          <mxGeometry x="55" y="115" width="90" height="30" />
        </mxCell>

        <!-- NAT Gateway C -->
        <mxCell id="nat-c" value="" style="sketch=0;points=[[0,0,0],[0.25,0,0],[0.5,0,0],[0.75,0,0],[1,0,0],[0,1,0],[0.25,1,0],[0.5,1,0],[0.75,1,0],[1,1,0],[0,0.25,0],[0,0.5,0],[0,0.75,0],[1,0.25,0],[1,0.5,0],[1,0.75,0]];outlineConnect=0;fontColor=#232F3E;gradientColor=#4AB29A;gradientDirection=north;fillColor=#116D5B;strokeColor=#ffffff;dashed=0;verticalLabelPosition=bottom;verticalAlign=top;align=center;html=1;fontSize=12;fontStyle=0;aspect=fixed;shape=mxgraph.aws4.resourceIcon;resIcon=mxgraph.aws4.nat_gateway;" vertex="1" parent="public-subnet-c">
          <mxGeometry x="75" y="60" width="50" height="50" />
        </mxCell>
        <mxCell id="nat-c-label" value="NAT Gateway C" style="text;html=1;align=center;verticalAlign=middle;resizable=0;points=[];autosize=1;strokeColor=none;fillColor=none;fontSize=10;" vertex="1" parent="public-subnet-c">
          <mxGeometry x="55" y="115" width="90" height="30" />
        </mxCell>

        <!-- Private Subnet A -->
        <mxCell id="private-subnet-a" value="" style="points=[[0,0],[0.25,0],[0.5,0],[0.75,0],[1,0],[1,0.25],[1,0.5],[1,0.75],[1,1],[0.75,1],[0.5,1],[0.25,1],[0,1],[0,0.75],[0,0.5],[0,0.25]];outlineConnect=0;gradientColor=none;html=1;whiteSpace=wrap;fontSize=12;fontStyle=0;container=1;pointerEvents=0;collapsible=0;recursiveResize=0;shape=mxgraph.aws4.group;grIcon=mxgraph.aws4.group_security_group;strokeColor=#FF9900;fillColor=#ffe6cc;verticalAlign=top;align=left;spacingLeft=30;fontColor=#FF9900;dashed=0;" vertex="1" parent="az-a">
          <mxGeometry x="20" y="200" width="420" height="200" />
        </mxCell>
        <mxCell id="private-subnet-a-label" value="Private Subnet A: 10.0.11.0/24" style="text;html=1;align=left;verticalAlign=top;resizable=0;points=[];autosize=1;strokeColor=none;fillColor=none;fontColor=#FF9900;fontStyle=1;" vertex="1" parent="private-subnet-a">
          <mxGeometry x="5" y="5" width="210" height="30" />
        </mxCell>

        <!-- Private Subnet C -->
        <mxCell id="private-subnet-c" value="" style="points=[[0,0],[0.25,0],[0.5,0],[0.75,0],[1,0],[1,0.25],[1,0.5],[1,0.75],[1,1],[0.75,1],[0.5,1],[0.25,1],[0,1],[0,0.75],[0,0.5],[0,0.25]];outlineConnect=0;gradientColor=none;html=1;whiteSpace=wrap;fontSize=12;fontStyle=0;container=1;pointerEvents=0;collapsible=0;recursiveResize=0;shape=mxgraph.aws4.group;grIcon=mxgraph.aws4.group_security_group;strokeColor=#FF9900;fillColor=#ffe6cc;verticalAlign=top;align=left;spacingLeft=30;fontColor=#FF9900;dashed=0;" vertex="1" parent="az-c">
          <mxGeometry x="20" y="200" width="420" height="200" />
        </mxCell>
        <mxCell id="private-subnet-c-label" value="Private Subnet C: 10.0.12.0/24" style="text;html=1;align=left;verticalAlign=top;resizable=0;points=[];autosize=1;strokeColor=none;fillColor=none;fontColor=#FF9900;fontStyle=1;" vertex="1" parent="private-subnet-c">
          <mxGeometry x="5" y="5" width="210" height="30" />
        </mxCell>

        <!-- ECS Tasks A -->
        <mxCell id="ecs-task-a1" value="" style="sketch=0;points=[[0,0,0],[0.25,0,0],[0.5,0,0],[0.75,0,0],[1,0,0],[0,1,0],[0.25,1,0],[0.5,1,0],[0.75,1,0],[1,1,0],[0,0.25,0],[0,0.5,0],[0,0.75,0],[1,0.25,0],[1,0.5,0],[1,0.75,0]];outlineConnect=0;fontColor=#232F3E;gradientColor=#F78E04;gradientDirection=north;fillColor=#D05C17;strokeColor=#ffffff;dashed=0;verticalLabelPosition=bottom;verticalAlign=top;align=center;html=1;fontSize=12;fontStyle=0;aspect=fixed;shape=mxgraph.aws4.resourceIcon;resIcon=mxgraph.aws4.ecs;" vertex="1" parent="private-subnet-a">
          <mxGeometry x="50" y="50" width="60" height="60" />
        </mxCell>
        <mxCell id="ecs-task-a1-label" value="ECS Task 1" style="text;html=1;align=center;verticalAlign=middle;resizable=0;points=[];autosize=1;strokeColor=none;fillColor=none;fontSize=10;" vertex="1" parent="private-subnet-a">
          <mxGeometry x="40" y="115" width="80" height="30" />
        </mxCell>

        <mxCell id="ecs-task-a2" value="" style="sketch=0;points=[[0,0,0],[0.25,0,0],[0.5,0,0],[0.75,0,0],[1,0,0],[0,1,0],[0.25,1,0],[0.5,1,0],[0.75,1,0],[1,1,0],[0,0.25,0],[0,0.5,0],[0,0.75,0],[1,0.25,0],[1,0.5,0],[1,0.75,0]];outlineConnect=0;fontColor=#232F3E;gradientColor=#F78E04;gradientDirection=north;fillColor=#D05C17;strokeColor=#ffffff;dashed=0;verticalLabelPosition=bottom;verticalAlign=top;align=center;html=1;fontSize=12;fontStyle=0;aspect=fixed;shape=mxgraph.aws4.resourceIcon;resIcon=mxgraph.aws4.ecs;" vertex="1" parent="private-subnet-a">
          <mxGeometry x="140" y="50" width="60" height="60" />
        </mxCell>
        <mxCell id="ecs-task-a2-label" value="ECS Task 2" style="text;html=1;align=center;verticalAlign=middle;resizable=0;points=[];autosize=1;strokeColor=none;fillColor=none;fontSize=10;" vertex="1" parent="private-subnet-a">
          <mxGeometry x="130" y="115" width="80" height="30" />
        </mxCell>

        <!-- ECS Tasks C -->
        <mxCell id="ecs-task-c1" value="" style="sketch=0;points=[[0,0,0],[0.25,0,0],[0.5,0,0],[0.75,0,0],[1,0,0],[0,1,0],[0.25,1,0],[0.5,1,0],[0.75,1,0],[1,1,0],[0,0.25,0],[0,0.5,0],[0,0.75,0],[1,0.25,0],[1,0.5,0],[1,0.75,0]];outlineConnect=0;fontColor=#232F3E;gradientColor=#F78E04;gradientDirection=north;fillColor=#D05C17;strokeColor=#ffffff;dashed=0;verticalLabelPosition=bottom;verticalAlign=top;align=center;html=1;fontSize=12;fontStyle=0;aspect=fixed;shape=mxgraph.aws4.resourceIcon;resIcon=mxgraph.aws4.ecs;" vertex="1" parent="private-subnet-c">
          <mxGeometry x="50" y="50" width="60" height="60" />
        </mxCell>
        <mxCell id="ecs-task-c1-label" value="ECS Task 3" style="text;html=1;align=center;verticalAlign=middle;resizable=0;points=[];autosize=1;strokeColor=none;fillColor=none;fontSize=10;" vertex="1" parent="private-subnet-c">
          <mxGeometry x="40" y="115" width="80" height="30" />
        </mxCell>

        <mxCell id="ecs-task-c2" value="" style="sketch=0;points=[[0,0,0],[0.25,0,0],[0.5,0,0],[0.75,0,0],[1,0,0],[0,1,0],[0.25,1,0],[0.5,1,0],[0.75,1,0],[1,1,0],[0,0.25,0],[0,0.5,0],[0,0.75,0],[1,0.25,0],[1,0.5,0],[1,0.75,0]];outlineConnect=0;fontColor=#232F3E;gradientColor=#F78E04;gradientDirection=north;fillColor=#D05C17;strokeColor=#ffffff;dashed=0;verticalLabelPosition=bottom;verticalAlign=top;align=center;html=1;fontSize=12;fontStyle=0;aspect=fixed;shape=mxgraph.aws4.resourceIcon;resIcon=mxgraph.aws4.ecs;" vertex="1" parent="private-subnet-c">
          <mxGeometry x="140" y="50" width="60" height="60" />
        </mxCell>
        <mxCell id="ecs-task-c2-label" value="ECS Task 4" style="text;html=1;align=center;verticalAlign=middle;resizable=0;points=[];autosize=1;strokeColor=none;fillColor=none;fontSize=10;" vertex="1" parent="private-subnet-c">
          <mxGeometry x="130" y="115" width="80" height="30" />
        </mxCell>

        <!-- RDS Primary -->
        <mxCell id="rds-primary" value="" style="sketch=0;points=[[0,0,0],[0.25,0,0],[0.5,0,0],[0.75,0,0],[1,0,0],[0,1,0],[0.25,1,0],[0.5,1,0],[0.75,1,0],[1,1,0],[0,0.25,0],[0,0.5,0],[0,0.75,0],[1,0.25,0],[1,0.5,0],[1,0.75,0]];outlineConnect=0;fontColor=#232F3E;gradientColor=#4D72F3;gradientDirection=north;fillColor=#3334B9;strokeColor=#ffffff;dashed=0;verticalLabelPosition=bottom;verticalAlign=top;align=center;html=1;fontSize=12;fontStyle=0;aspect=fixed;shape=mxgraph.aws4.resourceIcon;resIcon=mxgraph.aws4.rds;" vertex="1" parent="private-subnet-a">
          <mxGeometry x="300" y="50" width="60" height="60" />
        </mxCell>
        <mxCell id="rds-primary-label" value="RDS MySQL&#xa;Primary" style="text;html=1;align=center;verticalAlign=middle;resizable=0;points=[];autosize=1;strokeColor=none;fillColor=none;fontSize=10;" vertex="1" parent="private-subnet-a">
          <mxGeometry x="275" y="115" width="110" height="40" />
        </mxCell>

        <!-- RDS Standby -->
        <mxCell id="rds-standby" value="" style="sketch=0;points=[[0,0,0],[0.25,0,0],[0.5,0,0],[0.75,0,0],[1,0,0],[0,1,0],[0.25,1,0],[0.5,1,0],[0.75,1,0],[1,1,0],[0,0.25,0],[0,0.5,0],[0,0.75,0],[1,0.25,0],[1,0.5,0],[1,0.75,0]];outlineConnect=0;fontColor=#232F3E;gradientColor=#4D72F3;gradientDirection=north;fillColor=#3334B9;strokeColor=#ffffff;dashed=0;verticalLabelPosition=bottom;verticalAlign=top;align=center;html=1;fontSize=12;fontStyle=0;aspect=fixed;shape=mxgraph.aws4.resourceIcon;resIcon=mxgraph.aws4.rds;" vertex="1" parent="private-subnet-c">
          <mxGeometry x="300" y="50" width="60" height="60" />
        </mxCell>
        <mxCell id="rds-standby-label" value="RDS MySQL&#xa;Standby" style="text;html=1;align=center;verticalAlign=middle;resizable=0;points=[];autosize=1;strokeColor=none;fillColor=none;fontSize=10;" vertex="1" parent="private-subnet-c">
          <mxGeometry x="275" y="115" width="110" height="40" />
        </mxCell>

        <!-- IP Address Information -->
        <mxCell id="ip-info" value="IP Address Allocation&#xa;&#xa;VPC CIDR: 10.0.0.0/16 (65,536 IPs)&#xa;&#xa;Public Subnets:&#xa;• 10.0.1.0/24 (AZ-A): 254 IPs&#xa;• 10.0.2.0/24 (AZ-C): 254 IPs&#xa;&#xa;Private Subnets:&#xa;• 10.0.11.0/24 (AZ-A): 254 IPs&#xa;• 10.0.12.0/24 (AZ-C): 254 IPs&#xa;&#xa;Reserved IPs per subnet:&#xa;• .0: Network address&#xa;• .1: VPC Router&#xa;• .2: DNS Server&#xa;• .3: Reserved by AWS&#xa;• .255: Broadcast" style="text;html=1;align=left;verticalAlign=top;resizable=0;points=[];autosize=1;strokeColor=#82b366;fillColor=#d5e8d4;fontSize=11;fontFamily=Courier New;" vertex="1" parent="vpc-container">
          <mxGeometry x="840" y="60" width="220" height="300" />
        </mxCell>

        <!-- Route Table Details -->
        <mxCell id="route-details-public" value="0.0.0.0/0 → IGW&#xa;10.0.0.0/16 → Local" style="text;html=1;align=center;verticalAlign=middle;resizable=0;points=[];autosize=1;strokeColor=none;fillColor=none;fontSize=10;fontFamily=Courier New;" vertex="1" parent="vpc-container">
          <mxGeometry x="205" y="230" width="110" height="40" />
        </mxCell>

        <mxCell id="route-details-private-a" value="0.0.0.0/0 → NAT-A&#xa;10.0.0.0/16 → Local" style="text;html=1;align=center;verticalAlign=middle;resizable=0;points=[];autosize=1;strokeColor=none;fillColor=none;fontSize=10;fontFamily=Courier New;" vertex="1" parent="vpc-container">
          <mxGeometry x="210" y="450" width="120" height="40" />
        </mxCell>

        <mxCell id="route-details-private-c" value="0.0.0.0/0 → NAT-C&#xa;10.0.0.0/16 → Local" style="text;html=1;align=center;verticalAlign=middle;resizable=0;points=[];autosize=1;strokeColor=none;fillColor=none;fontSize=10;fontFamily=Courier New;" vertex="1" parent="vpc-container">
          <mxGeometry x="750" y="450" width="120" height="40" />
        </mxCell>

        <!-- Connections -->
        <!-- IGW to Route Table -->
        <mxCell id="conn-igw-rt" value="" style="endArrow=classic;html=1;rounded=0;strokeWidth=2;strokeColor=#4AB29A;" edge="1" parent="vpc-container">
          <mxGeometry width="50" height="50" relative="1" as="geometry">
            <mxPoint x="500" y="150" as="sourcePoint" />
            <mxPoint x="320" y="180" as="targetPoint" />
          </mxGeometry>
        </mxCell>

        <!-- Route Table to Subnets -->
        <mxCell id="conn-rt-public-a" value="" style="endArrow=classic;html=1;rounded=0;strokeWidth=1;strokeColor=#7AA116;dashed=1;" edge="1" parent="vpc-container">
          <mxGeometry width="50" height="50" relative="1" as="geometry">
            <mxPoint x="260" y="220" as="sourcePoint" />
            <mxPoint x="180" y="280" as="targetPoint" />
          </mxGeometry>
        </mxCell>

        <mxCell id="conn-rt-public-c" value="" style="endArrow=classic;html=1;rounded=0;strokeWidth=1;strokeColor=#7AA116;dashed=1;" edge="1" parent="vpc-container">
          <mxGeometry width="50" height="50" relative="1" as="geometry">
            <mxPoint x="320" y="200" as="sourcePoint" />
            <mxPoint x="680" y="280" as="targetPoint" />
          </mxGeometry>
        </mxCell>

        <!-- NAT to Private Route Tables -->
        <mxCell id="conn-nat-a-rt" value="" style="endArrow=classic;html=1;rounded=0;strokeWidth=2;strokeColor=#4AB29A;" edge="1" parent="vpc-container">
          <mxGeometry width="50" height="50" relative="1" as="geometry">
            <mxPoint x="155" y="360" as="sourcePoint" />
            <mxPoint x="270" y="400" as="targetPoint" />
          </mxGeometry>
        </mxCell>

        <mxCell id="conn-nat-c-rt" value="" style="endArrow=classic;html=1;rounded=0;strokeWidth=2;strokeColor=#4AB29A;" edge="1" parent="vpc-container">
          <mxGeometry width="50" height="50" relative="1" as="geometry">
            <mxPoint x="655" y="360" as="sourcePoint" />
            <mxPoint x="810" y="400" as="targetPoint" />
          </mxGeometry>
        </mxCell>

        <!-- Private Route Tables to Subnets -->
        <mxCell id="conn-rt-private-a" value="" style="endArrow=classic;html=1;rounded=0;strokeWidth=1;strokeColor=#FF9900;dashed=1;" edge="1" parent="vpc-container">
          <mxGeometry width="50" height="50" relative="1" as="geometry">
            <mxPoint x="270" y="440" as="sourcePoint" />
            <mxPoint x="280" y="480" as="targetPoint" />
          </mxGeometry>
        </mxCell>

        <mxCell id="conn-rt-private-c" value="" style="endArrow=classic;html=1;rounded=0;strokeWidth=1;strokeColor=#FF9900;dashed=1;" edge="1" parent="vpc-container">
          <mxGeometry width="50" height="50" relative="1" as="geometry">
            <mxPoint x="810" y="440" as="sourcePoint" />
            <mxPoint x="800" y="480" as="targetPoint" />
          </mxGeometry>
        </mxCell>

        <!-- RDS Replication -->
        <mxCell id="replication-line" value="" style="endArrow=classic;startArrow=classic;html=1;rounded=0;strokeWidth=3;strokeColor=#4D72F3;dashed=1;" edge="1" parent="vpc-container">
          <mxGeometry width="50" height="50" relative="1" as="geometry">
            <mxPoint x="400" y="520" as="sourcePoint" />
            <mxPoint x="800" y="520" as="targetPoint" />
          </mxGeometry>
        </mxCell>
        <mxCell id="replication-label" value="Multi-AZ Synchronous Replication" style="text;html=1;align=center;verticalAlign=middle;resizable=0;points=[];autosize=1;strokeColor=none;fillColor=none;fontSize=12;fontColor=#4D72F3;fontStyle=1;" vertex="1" parent="vpc-container">
          <mxGeometry x="480" y="530" width="240" height="30" />
        </mxCell>

      </root>
    </mxGraphModel>
  </diagram>
</mxfile>